# xmcd
#
# Track frame offsets: 
#        150
#        9536
#        21845
#        32405
#        42067
#        54096
#        65040
#        80637
#        91900
#        109761
#        120321
#        132818
#        150785
#        157981
#        170372
#        188118
#        202204
#
# Disc length: 2880 seconds
#
# Revision: 2
# Processed by: cddbd v1.5.2PL0 Copyright (c) Steve Scherf et al.
# Submitted via: ExactAudioCopy v1.0b1
#
DISCID=c80b3e11
DTITLE=Miki Ryvola and Nezmaři - Pisně Wabiho and Mikiho
DYEAR=2002
DGENRE=Folk
TTITLE0=Hejno vran
TTITLE1=Fajnová země
TTITLE2=Jarní kurýr
TTITLE3=Lákání
TTITLE4=Letokruhy
TTITLE5=Proklatá fordka
TTITLE6=Parta drsnejch dědků
TTITLE7=Samota
TTITLE8=Bál v lapáku
TTITLE9=Sedmnáct dnů
TTITLE10=Sochám brečí déšť na obočí
TTITLE11=Trail to Island
TTITLE12=Já jsem tak línej
TTITLE13=To bude asi tím
TTITLE14=Osamělý město
TTITLE15=Břehy mé duše jsou pokryty
TTITLE16=Tak už mi má holka mává
EXTD=
EXTT0=
EXTT1=
EXTT2=
EXTT3=
EXTT4=
EXTT5=
EXTT6=
EXTT7=
EXTT8=
EXTT9=
EXTT10=
EXTT11=
EXTT12=
EXTT13=
EXTT14=
EXTT15=
EXTT16=
PLAYORDER=
